<?xml version="1.0" encoding="UTF-8"?><svg xmlns="http://www.w3.org/2000/svg" xmlns:xlink="http://www.w3.org/1999/xlink" fill-opacity="1" color-rendering="auto" color-interpolation="auto" text-rendering="auto" stroke="black" stroke-linecap="square" width="501" stroke-miterlimit="10" shape-rendering="auto" stroke-opacity="1" fill="black" stroke-dasharray="none" font-weight="normal" stroke-width="1" height="607" font-family="'Dialog'" font-style="normal" stroke-linejoin="miter" font-size="12px" stroke-dashoffset="0" image-rendering="auto">
  <!--Generated by ySVG 2.5-->
  <defs id="genericDefs"/>
  <g>
    <defs id="defs1">
      <clipPath clipPathUnits="userSpaceOnUse" id="clipPath1">
        <path d="M0 0 L501 0 L501 607 L0 607 L0 0 Z"/>
      </clipPath>
      <clipPath clipPathUnits="userSpaceOnUse" id="clipPath2">
        <path d="M350 -19 L851 -19 L851 588 L350 588 L350 -19 Z"/>
      </clipPath>
    </defs>
    <g fill="white" text-rendering="geometricPrecision" shape-rendering="geometricPrecision" transform="translate(-350,19)" stroke="white">
      <rect x="350" width="501" height="607" y="-19" clip-path="url(#clipPath2)" stroke="none"/>
    </g>
    <g text-rendering="geometricPrecision" stroke-miterlimit="1.45" shape-rendering="geometricPrecision" font-family="sans-serif" transform="matrix(1,0,0,1,-350,19)" stroke-linecap="butt">
      <text x="445.7799" xml:space="preserve" y="173.4335" clip-path="url(#clipPath2)" stroke="none">ALUMNO (id, usuario, contrasenia)</text>
      <text x="444.0999" xml:space="preserve" y="269.0978" clip-path="url(#clipPath2)" stroke="none">CURSO (id, descripcion, codigo)</text>
      <text x="448.3512" xml:space="preserve" y="21.471" clip-path="url(#clipPath2)" stroke="none">PROFESOR (id, usuario, contrasenia, nombre)</text>
      <text x="452.0829" xml:space="preserve" y="71.5597" clip-path="url(#clipPath2)" stroke="none">MODULO (id, descripcion)</text>
      <text x="449.18" xml:space="preserve" y="357.9305" clip-path="url(#clipPath2)" stroke="none">ENCUESTA (id, orden, respuesta)</text>
      <text x="445.0882" xml:space="preserve" y="214.4147" clip-path="url(#clipPath2)" stroke="none">ALUMNO_MODULO(id_alumno,  id_modulo)</text>
      <text x="446.2552" xml:space="preserve" y="118.7103" clip-path="url(#clipPath2)" stroke="none">PROFESOR_MODULO (id_profesor, id_modulo)</text>
      <text x="445.264" xml:space="preserve" y="303.6516" clip-path="url(#clipPath2)" stroke="none">MODULO_CURSO(id_modulo, id_curso)</text>
      <text x="451.178" xml:space="preserve" y="392.6472" clip-path="url(#clipPath2)" stroke="none">PREGUNTA (id, orden, pregunta)</text>
      <text x="448.894" xml:space="preserve" y="432.3347" clip-path="url(#clipPath2)" stroke="none">ENCUESTA_PREGUNTA(id_encuesta, id_pregunta)</text>
      <rect fill="none" x="522.3051" width="13.8899" height="1" y="25.4046" clip-path="url(#clipPath2)"/>
      <rect fill="none" x="509.2041" width="15.1743" height="1" y="73.2571" clip-path="url(#clipPath2)"/>
      <rect fill="none" x="502.2179" width="15.1743" height="1" y="180.7383" clip-path="url(#clipPath2)"/>
      <rect fill="none" x="584.6239" width="114.3623" height="1" y="124.7008" clip-path="url(#clipPath2)"/>
      <rect fill="none" x="564.9359" width="114.3623" height="1" y="221.7546" clip-path="url(#clipPath2)"/>
      <rect fill="none" x="492.2478" width="13.8899" height="1" y="271.9321" clip-path="url(#clipPath2)"/>
      <rect fill="none" x="556.3098" width="107.2384" height="1" y="310.9915" clip-path="url(#clipPath2)"/>
      <rect fill="none" x="518.8717" width="13.8899" height="1" y="362.3083" clip-path="url(#clipPath2)"/>
      <rect fill="none" x="525.1472" width="11.0478" height="1" y="397.7191" clip-path="url(#clipPath2)"/>
      <rect fill="none" x="593.6948" width="131.5" height="1" y="440.6342" clip-path="url(#clipPath2)"/>
      <text x="450.2104" xml:space="preserve" y="507.3347" clip-path="url(#clipPath2)" stroke="none">ALUMNO_MODULO_ENCUESTA (id_alumno, id_modulo, id_encuesta)</text>
      <rect fill="none" x="639.993" width="194.2018" height="1" y="515.6342" clip-path="url(#clipPath2)"/>
      <path fill="none" d="M590.1387 221.7828 L590.1387 234.3033 L423.117 234.3033 L423.117 168.7196 L437.0053 168.7196" clip-path="url(#clipPath2)"/>
      <path d="M445.0053 168.7196 L433.0053 163.7196 L436.0053 168.7196 L433.0053 173.7196 Z" clip-path="url(#clipPath2)" stroke="none"/>
      <path fill="none" d="M586.2936 311.0165 L586.2936 323.3033 L398.117 323.3033 L398.117 66.3458 L450.117 66.3458 L450.2982 66.3471" clip-path="url(#clipPath2)"/>
      <path d="M450.2982 66.3471 L438.333 61.2643 L441.2984 66.2849 L438.2639 71.2641 Z" clip-path="url(#clipPath2)" stroke="none"/>
      <path fill="none" d="M639.2982 450.1281 L639.2982 465.6474 L639.2982 465.6474 L426.2982 465.6474 L426.2982 353.8125 L438.2983 353.7499" clip-path="url(#clipPath2)"/>
      <path d="M446.2982 353.7082 L434.2722 348.7708 L437.2983 353.7551 L434.3244 358.7707 Z" clip-path="url(#clipPath2)" stroke="none"/>
      <path fill="none" d="M706.2982 450.0919 L706.2982 480.6474 L411.2982 480.6474 L411.2982 387.9333 L441.4163 387.9333" clip-path="url(#clipPath2)"/>
      <path d="M449.4163 387.9333 L437.4163 382.9333 L440.4163 387.9333 L437.4163 392.9333 Z" clip-path="url(#clipPath2)" stroke="none"/>
      <path fill="none" d="M609.0688 125.733 L609.0688 141.3033 L433.117 141.3033 L433.117 16.7571 L442.5 16.7571" clip-path="url(#clipPath2)"/>
      <path d="M450.5 16.7571 L438.5 11.7571 L441.5 16.7571 L438.5 21.7571 Z" clip-path="url(#clipPath2)" stroke="none"/>
      <path fill="none" d="M680.8051 123.3033 L680.8051 152.3033 L423.117 152.3033 L423.117 66.8458 L442.2982 66.8458" clip-path="url(#clipPath2)"/>
      <path d="M450.2982 66.8458 L438.2982 61.8458 L441.2982 66.8458 L438.2982 71.8458 Z" clip-path="url(#clipPath2)" stroke="none"/>
      <path fill="none" d="M656.6212 222.7891 L656.6212 245.3033 L411.117 245.3033 L411.117 66.8458 L442.296 66.8458" clip-path="url(#clipPath2)"/>
      <path d="M450.296 66.8458 L438.296 61.8458 L441.296 66.8458 L438.296 71.8458 Z" clip-path="url(#clipPath2)" stroke="none"/>
      <path fill="none" d="M642.7157 311.9939 L642.7157 334.3033 L433.117 334.3033 L433.117 264.384 L437.0016 264.384" clip-path="url(#clipPath2)"/>
      <path d="M445.0016 264.384 L433.0016 259.384 L436.0016 264.384 L433.0016 269.384 Z" clip-path="url(#clipPath2)" stroke="none"/>
      <path fill="none" d="M673.8167 525.1064 L673.8167 538.1876 L386.8167 538.1876 L386.8167 168.7196 L437.0197 168.7196" clip-path="url(#clipPath2)"/>
      <path d="M445.0197 168.7196 L433.0197 163.7196 L436.0197 168.7196 L433.0197 173.7196 Z" clip-path="url(#clipPath2)" stroke="none"/>
      <path fill="none" d="M741.8167 525.1173 L741.8167 557.1876 L375.8167 557.1876 L375.8167 66.3458 L442.3174 66.7854" clip-path="url(#clipPath2)"/>
      <path d="M450.3172 66.8383 L438.3505 61.7591 L441.3174 66.7788 L438.2844 71.7588 Z" clip-path="url(#clipPath2)" stroke="none"/>
      <path fill="none" d="M802.8167 523.4377 L802.8167 572.7167 L368.5482 572.7167 L365.8167 572.7167 L365.8167 353.8125 L444.8167 353.8125 L446.2859 353.8125" clip-path="url(#clipPath2)"/>
      <path d="M446.2859 353.8125 L434.2859 348.8125 L437.2859 353.8125 L434.2859 358.8125 Z" clip-path="url(#clipPath2)" stroke="none"/>
    </g>
  </g>
</svg>
